<svg xmlns="http://www.w3.org/2000/svg" xmlns:xlink="http://www.w3.org/1999/xlink" width="60" zoomAndPan="magnify" viewBox="0 0 45 44.999999" height="60" preserveAspectRatio="xMidYMid meet" version="1.0"><defs><clipPath id="eaf99457c9"><path d="M 13.136719 9.46875 L 22.5 9.46875 L 22.5 26.140625 L 13.136719 26.140625 Z M 13.136719 9.46875 " clip-rule="nonzero"/></clipPath><clipPath id="baee55dd6a"><path d="M 22.5 16.863281 L 22.5 15.171875 L 13.136719 15.171875 L 13.136719 20.441406 L 22.5 20.441406 L 22.5 16.863281 M 13.136719 20.441406 L 22.5 26.121094 L 22.5 20.441406 L 13.136719 20.441406 M 13.136719 9.492188 L 22.5 9.492188 L 22.5 15.171875 L 13.136719 15.171875 L 13.136719 9.492188 " clip-rule="nonzero"/></clipPath><clipPath id="2e624587ca"><path d="M 22.5 9.46875 L 31.863281 9.46875 L 31.863281 26.140625 L 22.5 26.140625 Z M 22.5 9.46875 " clip-rule="nonzero"/></clipPath><clipPath id="978318cafc"><path d="M 22.5 15.171875 L 22.5 20.441406 L 31.863281 20.441406 L 31.863281 15.171875 L 22.5 15.171875 M 22.5 9.492188 L 31.863281 9.492188 L 31.863281 15.171875 L 22.5 15.171875 L 22.5 9.492188 M 22.5 26.121094 L 31.863281 20.441406 L 22.5 20.441406 L 22.5 26.121094 " clip-rule="nonzero"/></clipPath><clipPath id="30604d23b3"><path d="M 13.136719 3.8125 L 31.863281 3.8125 L 31.863281 15.199219 L 13.136719 15.199219 Z M 13.136719 3.8125 " clip-rule="nonzero"/></clipPath><clipPath id="3cc15cd9b7"><path d="M 22.5 15.171875 L 13.136719 9.492188 L 22.5 3.8125 L 31.863281 9.492188 L 22.5 15.171875 " clip-rule="nonzero"/></clipPath><clipPath id="803408a808"><path d="M 22.5 24.535156 L 31.863281 24.535156 L 31.863281 41.203125 L 22.5 41.203125 Z M 22.5 24.535156 " clip-rule="nonzero"/></clipPath><clipPath id="72e3cab2b1"><path d="M 31.863281 31.929688 L 31.863281 30.238281 L 22.5 30.238281 L 22.5 35.507812 L 31.863281 35.507812 L 31.863281 31.929688 M 22.5 35.507812 L 31.863281 41.1875 L 31.863281 35.507812 L 22.5 35.507812 M 22.5 24.558594 L 31.863281 24.558594 L 31.863281 30.238281 L 22.5 30.238281 L 22.5 24.558594 " clip-rule="nonzero"/></clipPath><clipPath id="8c1efd9264"><path d="M 31.863281 24.535156 L 41.230469 24.535156 L 41.230469 41.203125 L 31.863281 41.203125 Z M 31.863281 24.535156 " clip-rule="nonzero"/></clipPath><clipPath id="a11c969ff0"><path d="M 31.863281 30.238281 L 31.863281 35.507812 L 41.230469 35.507812 L 41.230469 30.238281 L 31.863281 30.238281 M 31.863281 24.558594 L 41.230469 24.558594 L 41.230469 30.238281 L 31.863281 30.238281 L 31.863281 24.558594 M 31.863281 41.1875 L 41.230469 35.507812 L 31.863281 35.507812 L 31.863281 41.1875 " clip-rule="nonzero"/></clipPath><clipPath id="dbab398d2b"><path d="M 22.5 18.878906 L 41.230469 18.878906 L 41.230469 30.265625 L 22.5 30.265625 Z M 22.5 18.878906 " clip-rule="nonzero"/></clipPath><clipPath id="d069c573c7"><path d="M 31.863281 30.238281 L 22.5 24.558594 L 31.863281 18.878906 L 41.230469 24.558594 L 31.863281 30.238281 " clip-rule="nonzero"/></clipPath><clipPath id="6a2ac5d8ed"><path d="M 3.769531 24.535156 L 13.136719 24.535156 L 13.136719 41.203125 L 3.769531 41.203125 Z M 3.769531 24.535156 " clip-rule="nonzero"/></clipPath><clipPath id="868cc24262"><path d="M 13.136719 31.929688 L 13.136719 30.238281 L 3.769531 30.238281 L 3.769531 35.507812 L 13.136719 35.507812 L 13.136719 31.929688 M 3.769531 35.507812 L 13.136719 41.1875 L 13.136719 35.507812 L 3.769531 35.507812 M 3.769531 24.558594 L 13.136719 24.558594 L 13.136719 30.238281 L 3.769531 30.238281 L 3.769531 24.558594 " clip-rule="nonzero"/></clipPath><clipPath id="b47446c907"><path d="M 13.136719 24.535156 L 22.5 24.535156 L 22.5 41.203125 L 13.136719 41.203125 Z M 13.136719 24.535156 " clip-rule="nonzero"/></clipPath><clipPath id="c17d688b34"><path d="M 13.136719 30.238281 L 13.136719 35.507812 L 22.5 35.507812 L 22.5 30.238281 L 13.136719 30.238281 M 13.136719 24.558594 L 22.5 24.558594 L 22.5 30.238281 L 13.136719 30.238281 L 13.136719 24.558594 M 13.136719 41.1875 L 22.5 35.507812 L 13.136719 35.507812 L 13.136719 41.1875 " clip-rule="nonzero"/></clipPath><clipPath id="5c5d3e4631"><path d="M 3.769531 18.878906 L 22.5 18.878906 L 22.5 30.265625 L 3.769531 30.265625 Z M 3.769531 18.878906 " clip-rule="nonzero"/></clipPath><clipPath id="9afe6be579"><path d="M 13.136719 30.238281 L 3.769531 24.558594 L 13.136719 18.878906 L 22.5 24.558594 L 13.136719 30.238281 " clip-rule="nonzero"/></clipPath></defs><g clip-path="url(#eaf99457c9)"><g clip-path="url(#baee55dd6a)"><path fill="#6f3284" d="M 13.136719 3.8125 L 31.863281 3.8125 L 31.863281 26.140625 L 13.136719 26.140625 Z M 13.136719 3.8125 " fill-opacity="1" fill-rule="nonzero"/></g></g><g clip-path="url(#2e624587ca)"><g clip-path="url(#978318cafc)"><path fill="#af47ab" d="M 13.136719 3.8125 L 31.863281 3.8125 L 31.863281 26.140625 L 13.136719 26.140625 Z M 13.136719 3.8125 " fill-opacity="1" fill-rule="nonzero"/></g></g><g clip-path="url(#30604d23b3)"><g clip-path="url(#3cc15cd9b7)"><path fill="#f487d2" d="M 13.136719 3.8125 L 31.863281 3.8125 L 31.863281 26.140625 L 13.136719 26.140625 Z M 13.136719 3.8125 " fill-opacity="1" fill-rule="nonzero"/></g></g><g clip-path="url(#803408a808)"><g clip-path="url(#72e3cab2b1)"><path fill="#af47ab" d="M 22.5 18.878906 L 41.230469 18.878906 L 41.230469 41.203125 L 22.5 41.203125 Z M 22.5 18.878906 " fill-opacity="1" fill-rule="nonzero"/></g></g><g clip-path="url(#8c1efd9264)"><g clip-path="url(#a11c969ff0)"><path fill="#af47ab" d="M 22.5 18.878906 L 41.230469 18.878906 L 41.230469 41.203125 L 22.5 41.203125 Z M 22.5 18.878906 " fill-opacity="1" fill-rule="nonzero"/></g></g><g clip-path="url(#dbab398d2b)"><g clip-path="url(#d069c573c7)"><path fill="#f487d2" d="M 22.5 18.878906 L 41.230469 18.878906 L 41.230469 41.203125 L 22.5 41.203125 Z M 22.5 18.878906 " fill-opacity="1" fill-rule="nonzero"/></g></g><g clip-path="url(#6a2ac5d8ed)"><g clip-path="url(#868cc24262)"><path fill="#6f3284" d="M 3.769531 18.878906 L 22.5 18.878906 L 22.5 41.203125 L 3.769531 41.203125 Z M 3.769531 18.878906 " fill-opacity="1" fill-rule="nonzero"/></g></g><g clip-path="url(#b47446c907)"><g clip-path="url(#c17d688b34)"><path fill="#af47ab" d="M 3.769531 18.878906 L 22.5 18.878906 L 22.5 41.203125 L 3.769531 41.203125 Z M 3.769531 18.878906 " fill-opacity="1" fill-rule="nonzero"/></g></g><g clip-path="url(#5c5d3e4631)"><g clip-path="url(#9afe6be579)"><path fill="#f487d2" d="M 3.769531 18.878906 L 22.5 18.878906 L 22.5 41.203125 L 3.769531 41.203125 Z M 3.769531 18.878906 " fill-opacity="1" fill-rule="nonzero"/></g></g></svg>